<svg width="20" height="20" viewBox="0 0 20 20" fill="none" xmlns="http://www.w3.org/2000/svg">
<path d="M4.39284 2.63144C4.48672 2.11622 4.70542 1.63185 5.02982 1.22072C5.35421 0.809581 5.77442 0.4842 6.25367 0.273043C6.73291 0.0618854 7.25661 -0.0286153 7.77892 0.00945821C8.30124 0.0475317 8.80628 0.213019 9.24984 0.491443V6.00044H8.43684C8.32112 5.55163 8.05311 5.15694 7.67863 4.88384C7.30414 4.61074 6.84643 4.47618 6.38373 4.50317C5.92103 4.53015 5.48206 4.71701 5.14186 5.03179C4.80166 5.34657 4.58135 5.76974 4.51859 6.22896C4.45583 6.68818 4.55452 7.15494 4.79778 7.54946C5.04104 7.94399 5.41377 8.24177 5.85227 8.39192C6.29076 8.54207 6.76779 8.53526 7.20182 8.37266C7.63585 8.21005 7.99994 7.90175 8.23184 7.50044H9.24984V19.2554C8.75482 19.6261 8.17561 19.8682 7.56407 19.9601C6.95252 20.0521 6.32773 19.9909 5.74562 19.7821C5.16352 19.5734 4.64226 19.2235 4.22852 18.7639C3.81478 18.3043 3.52146 17.7492 3.37484 17.1484L3.36084 17.1454C2.65816 17.0159 2.00144 16.7053 1.45558 16.2443C0.909723 15.7832 0.493623 15.1877 0.248406 14.5166C0.00318956 13.8455 -0.0626547 13.122 0.0573809 12.4177C0.177416 11.7133 0.479177 11.0525 0.932837 10.5004H5.24984C5.38245 10.5004 5.50962 10.5531 5.60339 10.6469C5.69716 10.7407 5.74984 10.8678 5.74984 11.0004V11.6454C5.31957 11.8195 4.96324 12.1378 4.7419 12.5457C4.52056 12.9537 4.44801 13.4259 4.53666 13.8815C4.62532 14.3371 4.86967 14.7477 5.22784 15.0429C5.58601 15.3381 6.0357 15.4995 6.49984 15.4995C6.96397 15.4995 7.41366 15.3381 7.77183 15.0429C8.13 14.7477 8.37435 14.3371 8.46301 13.8815C8.55167 13.4259 8.47911 12.9537 8.25777 12.5457C8.03644 12.1378 7.6801 11.8195 7.24984 11.6454V11.0004C7.24984 10.47 7.03912 9.9613 6.66405 9.58623C6.28898 9.21116 5.78027 9.00044 5.24984 9.00044H1.50784C1.17352 8.47804 0.996162 7.87066 0.996837 7.25044V6.65544C0.996894 5.73711 1.32563 4.84912 1.92358 4.15212C2.52153 3.45513 3.34919 2.99516 4.25684 2.85544L4.35484 2.84044L4.39284 2.63144ZM10.7498 19.2554C11.2449 19.6261 11.8241 19.8682 12.4356 19.9601C13.0472 20.0521 13.6719 19.9909 14.2541 19.7821C14.8362 19.5734 15.3574 19.2235 15.7712 18.7639C16.1849 18.3043 16.4782 17.7492 16.6248 17.1484L16.6388 17.1454C17.4592 16.9946 18.2142 16.5974 18.8032 16.0068C19.3923 15.4162 19.7875 14.6602 19.9363 13.8394C20.085 13.0187 19.9803 12.172 19.636 11.4123C19.2916 10.6525 18.7241 10.0157 18.0088 9.58644C18.6198 8.99644 18.9998 8.16744 18.9998 7.25044V6.65544C18.9998 5.73711 18.671 4.84912 18.0731 4.15212C17.4751 3.45513 16.6475 2.99516 15.7398 2.85544L15.6418 2.84044L15.6038 2.63144C15.5099 2.11659 15.2913 1.63258 14.9671 1.2217C14.643 0.810813 14.2232 0.485558 13.7443 0.274351C13.2655 0.0631444 12.7422 -0.0275886 12.2202 0.0100802C11.6982 0.0477491 11.1934 0.212673 10.7498 0.490443V13.5004H11.4998C12.1898 13.5004 12.7498 12.9404 12.7498 12.2504V10.3554C12.3196 10.1814 11.9632 9.86311 11.7419 9.45515C11.5206 9.04719 11.448 8.57495 11.5367 8.11936C11.6253 7.66377 11.8697 7.2532 12.2278 6.95801C12.586 6.66282 13.0357 6.50139 13.4998 6.50139C13.964 6.50139 14.4137 6.66282 14.7718 6.95801C15.13 7.2532 15.3744 7.66377 15.463 8.11936C15.5517 8.57495 15.4791 9.04719 15.2578 9.45515C15.0364 9.86311 14.6801 10.1814 14.2498 10.3554V12.2504C14.2498 12.9798 13.9601 13.6793 13.4444 14.195C12.9287 14.7107 12.2292 15.0004 11.4998 15.0004H10.7498V19.2554ZM5.99984 6.50044C5.99984 6.36784 6.05251 6.24066 6.14628 6.14689C6.24005 6.05312 6.36723 6.00044 6.49984 6.00044C6.63245 6.00044 6.75962 6.05312 6.85339 6.14689C6.94716 6.24066 6.99984 6.36784 6.99984 6.50044C6.99984 6.63305 6.94716 6.76023 6.85339 6.854C6.75962 6.94777 6.63245 7.00044 6.49984 7.00044C6.36723 7.00044 6.24005 6.94777 6.14628 6.854C6.05251 6.76023 5.99984 6.63305 5.99984 6.50044ZM6.49984 13.0004C6.36723 13.0004 6.24005 13.0531 6.14628 13.1469C6.05251 13.2407 5.99984 13.3678 5.99984 13.5004C5.99984 13.6331 6.05251 13.7602 6.14628 13.854C6.24005 13.9478 6.36723 14.0004 6.49984 14.0004C6.63245 14.0004 6.75962 13.9478 6.85339 13.854C6.94716 13.7602 6.99984 13.6331 6.99984 13.5004C6.99984 13.3678 6.94716 13.2407 6.85339 13.1469C6.75962 13.0531 6.63245 13.0004 6.49984 13.0004ZM12.9998 8.50044C12.9998 8.36784 13.0525 8.24066 13.1463 8.14689C13.2401 8.05312 13.3672 8.00044 13.4998 8.00044C13.6324 8.00044 13.7596 8.05312 13.8534 8.14689C13.9472 8.24066 13.9998 8.36784 13.9998 8.50044C13.9998 8.63305 13.9472 8.76023 13.8534 8.854C13.7596 8.94777 13.6324 9.00044 13.4998 9.00044C13.3672 9.00044 13.2401 8.94777 13.1463 8.854C13.0525 8.76023 12.9998 8.63305 12.9998 8.50044Z" fill="white"/>
</svg>
