<svg width="12" height="13" viewBox="0 0 12 13" fill="none" xmlns="http://www.w3.org/2000/svg">
<path d="M6.70664 0.293945C6.31602 -0.0966797 5.68164 -0.0966797 5.29102 0.293945L0.291016 5.29395C-0.0996094 5.68457 -0.0996094 6.31894 0.291016 6.70957C0.681641 7.10019 1.31602 7.10019 1.70664 6.70957L6.00039 2.41582L10.2941 6.70645C10.6848 7.09707 11.3191 7.09707 11.7098 6.70645C12.1004 6.31582 12.1004 5.68145 11.7098 5.29082L6.70977 0.29082L6.70664 0.293945ZM11.7066 11.2939L6.70664 6.29395C6.31602 5.90332 5.68164 5.90332 5.29102 6.29395L0.291016 11.2939C-0.0996094 11.6846 -0.0996094 12.3189 0.291016 12.7096C0.681641 13.1002 1.31602 13.1002 1.70664 12.7096L6.00039 8.41582L10.2941 12.7064C10.6848 13.0971 11.3191 13.0971 11.7098 12.7064C12.1004 12.3158 12.1004 11.6814 11.7098 11.2908L11.7066 11.2939Z" fill="white"/>
</svg>
