<svg width="20" height="20" viewBox="0 0 20 20" fill="none" xmlns="http://www.w3.org/2000/svg">
<path d="M15.2972 0H4.68281C2.09657 0 0 2.09657 0 4.68281V15.2972C0 17.8834 2.09657 19.98 4.68281 19.98H15.2972C17.8834 19.98 19.98 17.8834 19.98 15.2972V4.68281C19.98 2.09657 17.8834 0 15.2972 0Z" fill="#242938"/>
<path d="M3.24979 15.8458H5.73309V9.81491L2.18555 7.1543V14.7816C2.18555 15.3704 2.66273 15.8458 3.24979 15.8458Z" fill="#4285F4"/>
<path d="M14.2471 15.8458H16.7304C17.3193 15.8458 17.7947 15.3687 17.7947 14.7816V7.1543L14.2471 9.81491" fill="#34A853"/>
<path d="M14.2471 5.20309V9.81496L17.7947 7.15434V5.73514C17.7947 4.41903 16.2923 3.66869 15.2405 4.45806" fill="#FBBC04"/>
<path d="M5.73242 9.81402V5.20223L9.98949 8.39505L14.2466 5.20215V9.81402L9.98949 13.0069" fill="#EA4335"/>
<path d="M2.18555 5.73521V7.15419L5.73309 9.81488V5.20309L4.73979 4.45806C3.68615 3.66869 2.18555 4.41903 2.18555 5.73521Z" fill="#C5221F"/>
</svg>
