<svg width="20" height="20" viewBox="0 0 20 20" fill="none" xmlns="http://www.w3.org/2000/svg">
<path d="M10 0.5C8.12108 0.5 6.28435 1.05717 4.72209 2.10104C3.15982 3.14491 1.94218 4.62861 1.22315 6.36451C0.504116 8.1004 0.315985 10.0105 0.682544 11.8534C1.0491 13.6962 1.95389 15.3889 3.28249 16.7175C4.61109 18.0461 6.30383 18.9509 8.14664 19.3175C9.98946 19.684 11.8996 19.4959 13.6355 18.7769C15.3714 18.0578 16.8551 16.8402 17.899 15.2779C18.9428 13.7156 19.5 11.8789 19.5 10C19.4973 7.48126 18.4956 5.06644 16.7146 3.28542C14.9336 1.5044 12.5187 0.50266 10 0.5ZM10.7308 4.09721L12.9952 2.53976C14.2918 3.06199 15.4305 3.91181 16.3001 5.00611L15.5694 7.46697C15.5511 7.46697 15.5319 7.4761 15.5137 7.4825L13.4291 8.15937C13.3979 8.16949 13.3674 8.18169 13.3378 8.19591L10.7308 6.40279V4.09721ZM7.0075 2.53976L9.26923 4.09721V6.40279L6.66039 8.19957C6.63079 8.18535 6.60028 8.17314 6.56904 8.16303L4.48452 7.48615C4.46625 7.47976 4.44707 7.47519 4.4288 7.47062L3.69803 5.00976C4.56846 3.9135 5.70891 3.06233 7.0075 2.53976ZM5.82 14.3316H3.23125C2.47347 13.1534 2.03904 11.7966 1.97159 10.3974L3.98121 8.85543C3.99851 8.86304 4.01619 8.86975 4.03419 8.87553L6.11962 9.55332C6.14751 9.5617 6.17588 9.56841 6.20457 9.57341L7.1902 12.4435C7.17649 12.4599 7.16279 12.4764 7.15 12.4937L5.86202 14.2668C5.84688 14.2876 5.83286 14.3093 5.82 14.3316ZM12.0726 17.7644C10.7146 18.1261 9.28545 18.1261 7.92736 17.7644L7.00842 15.1702C7.02029 15.1556 7.03308 15.1419 7.04404 15.1263L8.33294 13.3524C8.34805 13.3318 8.36207 13.3105 8.37495 13.2885H11.625C11.6379 13.3105 11.652 13.3318 11.6671 13.3524L12.956 15.1263C12.9669 15.1419 12.9797 15.1556 12.9916 15.1702L12.0726 17.7644ZM14.18 14.3289C14.1671 14.3065 14.1531 14.2849 14.138 14.264L12.8491 12.4937C12.8363 12.4764 12.8226 12.4599 12.8089 12.4435L13.7945 9.57341C13.8232 9.56841 13.8516 9.5617 13.8795 9.55332L15.9649 8.87553C15.9829 8.86975 16.0006 8.86304 16.0179 8.85543L18.0275 10.3974C17.96 11.7966 17.5256 13.1534 16.7678 14.3316L14.18 14.3289Z" fill="white"/>
</svg>
