<svg width="17" height="17" viewBox="0 0 17 17" fill="none" xmlns="http://www.w3.org/2000/svg">
<g clip-path="url(#clip0_568_27)">
<path d="M9.0127 17.5137C13.7071 17.5137 17.5127 13.7081 17.5127 9.01367C17.5127 4.31925 13.7071 0.513672 9.0127 0.513672C4.31827 0.513672 0.512695 4.31925 0.512695 9.01367C0.512695 13.7081 4.31827 17.5137 9.0127 17.5137Z" fill="white"/>
<path d="M11.8297 8.43903C11.5189 8.39501 11.2427 8.64312 11 8.7992C10.4757 9.13402 10.0128 9.52221 9.56596 9.95974C9.28983 10.2305 8.91632 10.5907 8.81761 10.9802C8.77225 11.1603 8.82828 11.3671 8.86429 11.5432C8.92699 11.85 9.02304 12.1488 9.11908 12.4462C9.22755 12.7806 9.3531 13.1092 9.49526 13.4307C9.56596 13.5921 9.64333 13.7522 9.71936 13.9123C9.79006 14.0617 9.83675 14.1497 10.0102 14.1724C10.2049 14.1977 10.3997 14.1684 10.5931 14.1604C10.8786 14.1497 11.164 14.1217 11.4455 14.0737C11.8177 14.011 12.1925 13.943 12.5487 13.8162C12.8782 13.6975 13.2557 13.5134 13.4465 13.2106C13.856 12.5596 14.1041 11.8206 14.2402 11.0669C14.2802 10.8495 14.3189 10.6281 14.3175 10.4053C14.3189 10.2092 14.3362 10.0078 14.1948 9.85703C13.9414 9.5849 13.6412 9.35946 13.3304 9.15536C12.8702 8.85656 12.3886 8.51907 11.8297 8.43903ZM2.77876 5.29355C2.4893 5.44695 2.26252 5.81246 2.09311 6.08058C1.75428 6.61417 1.48082 7.23046 1.35276 7.85075C1.25538 8.32564 1.46748 8.78853 1.62622 9.2274C1.78096 9.65026 2.05042 9.98509 2.34523 10.3172C2.41993 10.4026 2.51464 10.4666 2.58934 10.5507C2.67472 10.6454 2.78277 10.7348 2.89482 10.7975C2.97486 10.8428 3.04689 10.7815 3.12826 10.7628C3.34303 10.7108 3.50311 10.6014 3.69786 10.4987C3.87261 10.4053 4.0527 10.3266 4.22878 10.2332C4.60629 10.0304 5.05584 9.8637 5.38532 9.5849C5.42801 9.54888 5.48404 9.50353 5.49604 9.44617C5.52672 9.30343 5.48404 9.11801 5.47737 8.97261C5.46936 8.76852 5.4667 8.56575 5.46536 8.36166C5.46403 7.90011 5.48137 7.43856 5.48137 6.97701C5.48537 6.71955 5.51739 6.46343 5.50538 6.20598C5.48404 5.82313 5.07051 5.68707 4.7597 5.6097C4.32349 5.50165 3.88462 5.35358 3.43908 5.29888C3.25499 5.27887 2.95085 5.20284 2.77876 5.29355ZM14.1028 4.14234C14.1441 3.85287 13.9507 3.50471 13.8106 3.24592C13.5332 2.72967 13.1356 2.22277 12.6394 1.81991C12.2606 1.51177 11.703 1.38638 11.1841 1.33435C10.2543 1.23964 9.54462 1.297 9.34852 1.32768C9.1511 1.35836 8.96568 1.41839 8.86029 1.54912C8.65219 1.80257 8.61618 2.16541 8.57216 2.47756C8.50813 2.9231 8.4521 3.38198 8.5108 3.83019C8.52013 3.91023 8.53214 4.01561 8.57082 4.08631C8.64419 4.21704 8.79893 4.28241 8.95234 4.35044C9.74738 4.70127 11.2641 5.56968 11.5109 5.68707C11.879 5.86448 12.2712 5.62837 12.5434 5.43762C12.9209 5.17216 13.3411 4.92271 13.6746 4.62257C13.812 4.49984 14.0774 4.31309 14.1028 4.14234ZM2.68272 14.0657C2.71473 14.115 2.74542 14.1524 2.79477 14.1897C2.87348 14.2498 2.94818 14.3111 3.02288 14.3765C3.67519 14.9488 4.43955 15.3796 5.19724 15.7932C5.42534 15.9185 5.64278 16.0466 5.87489 16.1627C6.12567 16.2867 6.38446 16.3708 6.65392 16.4455C6.83667 16.4962 7.02209 16.5455 7.21152 16.5642C7.3876 16.5815 7.56768 16.6229 7.7451 16.6255C7.84648 16.6269 7.93986 16.6229 8.03857 16.6095C7.99055 16.5322 7.94786 16.4335 7.90651 16.3508C7.84115 16.2214 7.77445 16.0906 7.70775 15.9626C7.63038 15.8145 7.57035 15.6598 7.49165 15.513C7.43029 15.401 7.35025 15.2849 7.23953 15.2196C7.09146 15.1315 6.95006 15.0448 6.78865 14.9794C6.19904 14.7393 5.67079 14.4005 5.12253 14.083C4.84507 13.9216 4.57294 13.7495 4.31149 13.5614C4.17142 13.4614 4.03536 13.3573 3.88729 13.268C3.85661 13.248 3.82592 13.2239 3.78991 13.2186C3.75789 13.2133 3.70854 13.2146 3.67652 13.2186C3.64717 13.2226 3.61249 13.2279 3.58448 13.2333C3.39239 13.2733 3.18429 13.324 2.98553 13.368C2.79611 13.4107 2.58401 13.4254 2.40259 13.4947C2.33189 13.5214 2.33989 13.5614 2.3679 13.6228C2.41059 13.7188 2.47329 13.8069 2.53865 13.8869C2.58267 13.9443 2.63736 13.9976 2.68272 14.0657Z" fill="#2F2F2F"/>
<path d="M4.98996 6.44532C4.94478 6.44535 4.90052 6.4326 4.86229 6.40855C4.82405 6.3845 4.7934 6.35012 4.77387 6.30939C4.75434 6.26866 4.74673 6.22323 4.75192 6.17836C4.75711 6.13349 4.77489 6.091 4.8032 6.0558C4.86856 5.97576 6.40796 4.08954 9.16125 3.66268C9.19226 3.65795 9.22389 3.65937 9.25435 3.66687C9.2848 3.67436 9.31349 3.68778 9.33876 3.70636C9.36403 3.72494 9.38539 3.74832 9.40162 3.77516C9.41786 3.80199 9.42865 3.83176 9.43338 3.86277C9.43811 3.89378 9.43669 3.92541 9.42919 3.95587C9.42169 3.98632 9.40827 4.01501 9.38969 4.04027C9.37111 4.06554 9.34774 4.08691 9.3209 4.10314C9.29406 4.11938 9.26429 4.13017 9.23329 4.1349C6.67075 4.53375 5.19005 6.3386 5.17538 6.35594C5.12735 6.41464 5.05932 6.44532 4.98996 6.44532ZM4.42169 14.8199C4.35232 14.8199 4.28296 14.7906 4.23627 14.7319C4.1709 14.6518 2.65419 12.747 2.81827 9.96698C2.82627 9.83491 2.93832 9.73353 3.07039 9.74154C3.20245 9.74954 3.30249 9.86293 3.29449 9.99499C3.14242 12.5922 4.59244 14.4131 4.60711 14.4304C4.69115 14.5331 4.67381 14.6839 4.57243 14.7666C4.5284 14.8013 4.47505 14.8199 4.42169 14.8199ZM6.2252 15.759C6.10248 15.759 5.99843 15.6657 5.98776 15.5403C5.97709 15.4082 6.07447 15.2921 6.20653 15.2815C6.22921 15.2801 8.55296 15.0614 10.3165 13.1591C10.3599 13.1127 10.4199 13.0854 10.4834 13.0831C10.5469 13.0809 10.6087 13.1039 10.6553 13.1471C10.7527 13.2365 10.758 13.3886 10.6673 13.486C8.77307 15.5269 6.34793 15.7497 6.24655 15.759C6.23854 15.7577 6.23187 15.759 6.2252 15.759ZM2.90231 6.15852C2.79025 6.15852 2.69021 6.07981 2.66886 5.96509C2.65552 5.89839 2.35405 4.31765 3.00369 2.44477C3.04771 2.31938 3.18244 2.25268 3.30783 2.2967C3.43189 2.34072 3.49859 2.47545 3.4559 2.60084C2.84761 4.35367 3.13442 5.85704 3.13842 5.87305C3.16376 6.00244 3.07972 6.12917 2.949 6.15451C2.93432 6.15718 2.91831 6.15852 2.90231 6.15852ZM9.85358 2.23534C9.80422 2.23534 9.75353 2.21933 9.71218 2.18731C9.70017 2.17931 8.45559 1.27622 6.61872 1.07479C6.48799 1.06145 6.39195 0.942729 6.40662 0.812C6.41996 0.679938 6.53868 0.586561 6.66941 0.599901C8.64101 0.814668 9.94028 1.76178 9.99498 1.8018C10.1004 1.8805 10.123 2.02991 10.0443 2.13662C9.99898 2.20199 9.92695 2.23534 9.85358 2.23534ZM15.8911 6.1265C15.8217 6.1265 15.7524 6.09582 15.7043 6.03713C14.5384 4.59511 13.1111 4.04152 13.0978 4.03618C13.0385 4.01373 12.9904 3.96872 12.9642 3.91099C12.938 3.85326 12.9356 3.78749 12.9577 3.72804C13.0044 3.60398 13.1431 3.54262 13.2658 3.58797C13.3299 3.61198 14.8293 4.19359 16.0752 5.73565C16.1592 5.83837 16.1419 5.9891 16.0392 6.07181C15.9965 6.10916 15.9431 6.1265 15.8911 6.1265ZM11.6691 9.36002C11.6598 9.36002 11.6478 9.35869 11.6384 9.35736C11.6073 9.35335 11.5772 9.34322 11.55 9.32755C11.5228 9.31188 11.499 9.29098 11.4799 9.26606C11.4608 9.24114 11.4468 9.21268 11.4388 9.18233C11.4307 9.15198 11.4288 9.12034 11.433 9.08923C11.7385 6.80282 11.4383 5.11402 11.4343 5.09668C11.4103 4.96729 11.4957 4.8419 11.6264 4.81922C11.7571 4.79387 11.8812 4.88192 11.9052 5.01131C11.9172 5.08334 12.2227 6.79215 11.9065 9.15326C11.8905 9.27332 11.7878 9.36002 11.6691 9.36002ZM9.59345 11.3129C9.58545 11.3129 9.58012 11.3129 9.57211 11.3116C6.60005 11.0488 4.64446 9.37203 4.56175 9.30133C4.51402 9.25963 4.48471 9.20075 4.48021 9.13753C4.47571 9.07431 4.49639 9.01187 4.53774 8.96384C4.62445 8.86379 4.77519 8.85312 4.87523 8.93983C4.89524 8.95583 6.80281 10.5873 9.6148 10.8354C9.67594 10.8412 9.73251 10.8702 9.77282 10.9166C9.81312 10.9629 9.83407 11.023 9.83133 11.0843C9.82859 11.1457 9.80236 11.2036 9.75809 11.2462C9.71381 11.2887 9.65487 11.3126 9.59345 11.3129ZM1.05744 8.57165C0.85601 8.57165 0.635907 8.54631 0.430477 8.4676C0.37117 8.44515 0.323155 8.40014 0.296913 8.34241C0.270671 8.28468 0.268334 8.21891 0.290411 8.15946C0.338433 8.03673 0.474497 7.97404 0.59989 8.01939C1.0401 8.18747 1.62837 8.01539 1.63504 8.01406C1.76044 7.97671 1.89383 8.04741 1.93118 8.17547C1.96987 8.30086 1.89783 8.43425 1.77244 8.47294C1.75243 8.47828 1.43762 8.57165 1.05744 8.57165ZM14.0956 10.6126C14.0049 10.6126 13.9195 10.5606 13.8795 10.4739C13.8234 10.3552 13.8768 10.2124 13.9955 10.1564C14.0089 10.1497 15.3989 9.49209 16.4567 7.97671C16.5314 7.86732 16.6808 7.84064 16.7888 7.91668C16.8969 7.99271 16.9236 8.14078 16.8489 8.24883C15.715 9.87493 14.2583 10.5606 14.197 10.5899C14.1623 10.6046 14.1289 10.6126 14.0956 10.6126ZM14.0956 14.6505C14.0422 14.6505 13.9889 14.6332 13.9435 14.5985C13.3966 14.1676 12.867 13.3846 12.8443 13.3526C12.7696 13.2405 12.799 13.0884 12.911 13.0124C13.0217 12.9377 13.1751 12.9671 13.2498 13.0804C13.2552 13.0871 13.7594 13.8315 14.2463 14.2143C14.3517 14.2983 14.3704 14.4518 14.2877 14.5585C14.2383 14.6172 14.1676 14.6505 14.0956 14.6505Z" fill="#2F2F2F"/>
<path d="M8.53711 17.0371C3.84957 17.0371 0.0371094 13.2246 0.0371094 8.53711C0.0371094 3.8509 3.84957 0.0371094 8.53711 0.0371094C13.2246 0.0371094 17.0371 3.8509 17.0371 8.53578C17.0371 13.2246 13.2233 17.0371 8.53711 17.0371ZM8.53711 0.993559C4.37782 0.993559 0.993559 4.37782 0.993559 8.53711C0.993559 12.6964 4.37648 16.0807 8.53578 16.0807C12.6951 16.0807 16.0793 12.6964 16.0793 8.53711C16.0807 4.37782 12.6951 0.993559 8.53711 0.993559Z" fill="#2F2F2F"/>
</g>
<defs>
<clipPath id="clip0_568_27">
<rect width="17" height="17" fill="white"/>
</clipPath>
</defs>
</svg>
