<svg width="22" height="20" viewBox="0 0 22 20" fill="none" xmlns="http://www.w3.org/2000/svg">
<path d="M11.5932 19.2584L11.5822 19.2604L11.5112 19.2954L11.4912 19.2994L11.4772 19.2954L11.4062 19.2604C11.3955 19.2571 11.3875 19.2588 11.3822 19.2654L11.3782 19.2754L11.3612 19.7034L11.3662 19.7234L11.3762 19.7364L11.4802 19.8104L11.4952 19.8144L11.5072 19.8104L11.6112 19.7364L11.6232 19.7204L11.6272 19.7034L11.6102 19.2764C11.6075 19.2658 11.6018 19.2598 11.5932 19.2584ZM11.8582 19.1454L11.8452 19.1474L11.6602 19.2404L11.6502 19.2504L11.6472 19.2614L11.6652 19.6914L11.6702 19.7034L11.6782 19.7104L11.8792 19.8034C11.8918 19.8068 11.9015 19.8041 11.9082 19.7954L11.9122 19.7814L11.8782 19.1674C11.8748 19.1554 11.8682 19.1481 11.8582 19.1454ZM11.1432 19.1474C11.1388 19.1448 11.1335 19.1439 11.1285 19.145C11.1234 19.1461 11.119 19.1491 11.1162 19.1534L11.1102 19.1674L11.0762 19.7814C11.0768 19.7934 11.0825 19.8014 11.0932 19.8054L11.1082 19.8034L11.3092 19.7104L11.3192 19.7024L11.3232 19.6914L11.3402 19.2614L11.3372 19.2494L11.3272 19.2394L11.1432 19.1474Z" fill="white"/>
<path d="M16.0001 0C17.1061 0 17.9551 0.843 18.5841 1.75L18.7971 2.071L18.9921 2.391C19.0541 2.49567 19.1135 2.59833 19.1701 2.699C19.9571 4.106 20.6421 5.943 21.0951 7.758C21.5451 9.559 21.7941 11.44 21.6351 12.919C21.4751 14.404 20.7101 16 19.0001 16C17.4661 16 16.2571 15.18 15.2751 14.379L14.1651 13.448C13.2421 12.692 12.2321 12 11.0001 12C9.76812 12 8.75712 12.692 7.83612 13.448L6.72612 14.378C5.74212 15.18 4.53312 16 3.00012 16C1.28912 16 0.524124 14.404 0.365124 12.919C0.207124 11.439 0.455124 9.559 0.905124 7.758C1.35812 5.943 2.04312 4.106 2.83012 2.699L3.00812 2.39L3.20312 2.071L3.41612 1.75C4.04512 0.843 4.89412 0 6.00012 0C6.51012 0 7.01712 0.124 7.51512 0.27L8.10812 0.452C8.20612 0.482 8.30346 0.510667 8.40012 0.538C9.26512 0.786 10.1501 1 11.0001 1C11.8501 1 12.7351 0.786 13.6001 0.538L14.4851 0.271C14.9831 0.124 15.4901 0 16.0001 0ZM7.50012 4C6.83708 4 6.2012 4.26339 5.73236 4.73223C5.26352 5.20107 5.00012 5.83696 5.00012 6.5C5.00012 7.16304 5.26352 7.79893 5.73236 8.26777C6.2012 8.73661 6.83708 9 7.50012 9C8.16317 9 8.79905 8.73661 9.26789 8.26777C9.73673 7.79893 10.0001 7.16304 10.0001 6.5C10.0001 5.83696 9.73673 5.20107 9.26789 4.73223C8.79905 4.26339 8.16317 4 7.50012 4ZM14.5001 4C14.2349 4 13.9806 4.10536 13.793 4.29289C13.6055 4.48043 13.5001 4.73478 13.5001 5V5.5H13.0001C12.7349 5.5 12.4806 5.60536 12.293 5.79289C12.1055 5.98043 12.0001 6.23478 12.0001 6.5C12.0001 6.76522 12.1055 7.01957 12.293 7.20711C12.4806 7.39464 12.7349 7.5 13.0001 7.5H13.5001V8C13.5001 8.26522 13.6055 8.51957 13.793 8.70711C13.9806 8.89464 14.2349 9 14.5001 9C14.7653 9 15.0197 8.89464 15.2072 8.70711C15.3948 8.51957 15.5001 8.26522 15.5001 8V7.5H16.0001C16.2653 7.5 16.5197 7.39464 16.7072 7.20711C16.8948 7.01957 17.0001 6.76522 17.0001 6.5C17.0001 6.23478 16.8948 5.98043 16.7072 5.79289C16.5197 5.60536 16.2653 5.5 16.0001 5.5H15.5001V5C15.5001 4.73478 15.3948 4.48043 15.2072 4.29289C15.0197 4.10536 14.7653 4 14.5001 4ZM7.50012 6C7.63273 6 7.75991 6.05268 7.85368 6.14645C7.94745 6.24021 8.00012 6.36739 8.00012 6.5C8.00012 6.63261 7.94745 6.75979 7.85368 6.85355C7.75991 6.94732 7.63273 7 7.50012 7C7.36752 7 7.24034 6.94732 7.14657 6.85355C7.0528 6.75979 7.00012 6.63261 7.00012 6.5C7.00012 6.36739 7.0528 6.24021 7.14657 6.14645C7.24034 6.05268 7.36752 6 7.50012 6Z" fill="white"/>
</svg>
