<svg width="17" height="13" viewBox="0 0 17 13" fill="none" xmlns="http://www.w3.org/2000/svg">
<path fill-rule="evenodd" clip-rule="evenodd" d="M12.4585 0.166992C13.0625 0.166992 13.5621 0.510575 13.9278 0.871575C14.3086 1.24603 14.6577 1.74953 14.9681 2.30449C15.5911 3.41758 16.1334 4.87187 16.492 6.30874C16.8483 7.73453 17.0454 9.22366 16.9195 10.3945C16.7928 11.5702 16.1872 12.8337 14.8335 12.8337C13.665 12.8337 12.734 12.232 11.9724 11.6216L11.6945 11.3928L11.305 11.0643L10.9535 10.773C10.1468 10.1198 9.43035 9.66699 8.50014 9.66699C7.56993 9.66699 6.85347 10.1198 6.04676 10.773L5.69526 11.0643L5.30576 11.3928L5.02868 11.6216C4.26551 12.232 3.33451 12.8337 2.16681 12.8337C0.812264 12.8337 0.206639 11.5702 0.0807638 10.3945C-0.0443196 9.22287 0.152014 7.73453 0.508264 6.30874C0.866889 4.87187 1.40918 3.41758 2.03222 2.3037C2.34256 1.74953 2.69168 1.24603 3.07247 0.870784C3.43822 0.510575 3.93776 0.166992 4.54181 0.166992C4.94951 0.166992 5.34772 0.264367 5.7396 0.380742L6.20826 0.524034C6.28664 0.547784 6.36422 0.571534 6.44181 0.592909C7.1266 0.789242 7.82722 0.958659 8.50014 0.958659C9.17306 0.958659 9.87368 0.789242 10.5585 0.592909L11.2591 0.381534C11.6533 0.265159 12.0547 0.166992 12.4585 0.166992ZM12.4585 1.75033C12.1553 1.75033 11.8386 1.84216 11.5314 1.9427L11.1688 2.06224C11.1108 2.08111 11.0525 2.09906 10.9939 2.11608C10.2933 2.31558 9.41056 2.54199 8.50014 2.54199C7.58972 2.54199 6.70701 2.31558 6.00639 2.11608L5.83222 2.06224L5.46885 1.9427C5.16168 1.84137 4.84501 1.75033 4.54181 1.75033C4.21089 1.81208 3.91401 2.21345 3.68997 2.58553L3.56489 2.80324L3.41447 3.07716C2.87456 4.04141 2.37739 5.35716 2.04489 6.6927C1.73218 7.94037 1.58018 9.13578 1.63797 10.0256L1.65856 10.2576L1.67439 10.3969L1.69814 10.5616C1.75276 10.879 1.87072 11.2503 2.16681 11.2503C2.80964 11.2503 3.34639 10.9305 4.01376 10.4001L4.33281 10.1404L4.93447 9.63691L5.20681 9.41524C6.04914 8.74787 7.10285 8.08366 8.50014 8.08366C9.89743 8.08366 10.9511 8.74866 11.7935 9.41524L12.0666 9.63691L12.6683 10.1404L12.9865 10.4001C13.6539 10.9305 14.1898 11.2503 14.8335 11.2503C15.1026 11.2503 15.2246 10.944 15.2855 10.6495L15.3156 10.4769L15.3449 10.2259C15.4423 9.31866 15.2918 8.03695 14.9562 6.6927C14.6506 5.46878 14.2073 4.2607 13.7196 3.32495L13.4354 2.80245L13.3103 2.58633C13.0863 2.21345 12.7894 1.81208 12.4585 1.75033ZM5.72931 3.33366C6.25421 3.33366 6.75762 3.54218 7.12879 3.91334C7.49995 4.28451 7.70847 4.78792 7.70847 5.31283C7.70847 5.83773 7.49995 6.34114 7.12879 6.71231C6.75762 7.08347 6.25421 7.29199 5.72931 7.29199C5.2044 7.29199 4.70099 7.08347 4.32982 6.71231C3.95866 6.34114 3.75014 5.83773 3.75014 5.31283C3.75014 4.78792 3.95866 4.28451 4.32982 3.91334C4.70099 3.54218 5.2044 3.33366 5.72931 3.33366ZM11.271 3.33366C11.4649 3.33368 11.652 3.40487 11.7969 3.53373C11.9418 3.66258 12.0344 3.84013 12.0571 4.0327L12.0626 4.12533V4.52116H12.4585C12.6603 4.52138 12.8543 4.59865 13.0011 4.73716C13.1478 4.87568 13.2361 5.065 13.2479 5.26643C13.2597 5.46786 13.1942 5.66621 13.0647 5.82094C12.9352 5.97568 12.7515 6.07512 12.5511 6.09895L12.4585 6.10449H12.0626V6.50033C12.0624 6.70211 11.9852 6.89618 11.8466 7.04291C11.7081 7.18963 11.5188 7.27793 11.3174 7.28975C11.1159 7.30158 10.9176 7.23604 10.7629 7.10653C10.6081 6.97702 10.5087 6.79332 10.4848 6.59295L10.4793 6.50033V6.10449H10.0835C9.88169 6.10427 9.68761 6.027 9.54089 5.88849C9.39416 5.74997 9.30587 5.56065 9.29404 5.35922C9.28222 5.15779 9.34776 4.95944 9.47727 4.80471C9.60677 4.64997 9.79048 4.55053 9.99085 4.5267L10.0835 4.52116H10.4793V4.12533C10.4793 3.91536 10.5627 3.714 10.7112 3.56553C10.8596 3.41707 11.061 3.33366 11.271 3.33366ZM5.72931 4.91699C5.62432 4.91699 5.52364 4.9587 5.44941 5.03293C5.37518 5.10716 5.33347 5.20784 5.33347 5.31283C5.33347 5.41781 5.37518 5.51849 5.44941 5.59272C5.52364 5.66696 5.62432 5.70866 5.72931 5.70866C5.83429 5.70866 5.93497 5.66696 6.0092 5.59272C6.08344 5.51849 6.12514 5.41781 6.12514 5.31283C6.12514 5.20784 6.08344 5.10716 6.0092 5.03293C5.93497 4.9587 5.83429 4.91699 5.72931 4.91699Z" fill="white"/>
</svg>
