<svg width="20" height="20" viewBox="0 0 20 20" fill="none" xmlns="http://www.w3.org/2000/svg">
<path d="M15.2972 0H4.68281C2.09657 0 0 2.09657 0 4.68281V15.2972C0 17.8834 2.09657 19.98 4.68281 19.98H15.2972C17.8834 19.98 19.98 17.8834 19.98 15.2972V4.68281C19.98 2.09657 17.8834 0 15.2972 0Z" fill="white"/>
<path d="M15.2972 0H4.68281C2.09657 0 0 2.09657 0 4.68281V15.2972C0 17.8834 2.09657 19.98 4.68281 19.98H15.2972C17.8834 19.98 19.98 17.8834 19.98 15.2972V4.68281C19.98 2.09657 17.8834 0 15.2972 0Z" fill="#0A66C2"/>
<path d="M14.4165 16.9897H16.7009C16.7837 16.9897 16.8631 16.9568 16.9216 16.8983C16.9802 16.8397 17.0131 16.7603 17.0131 16.6776L17.0143 11.851C17.0143 9.32828 16.4707 7.38921 13.5226 7.38921C12.4019 7.34753 11.3451 7.92523 10.7748 8.88989C10.772 8.89458 10.7678 8.89822 10.7627 8.90027C10.7577 8.90232 10.7521 8.90265 10.7468 8.90123C10.7416 8.8998 10.7369 8.8967 10.7336 8.89238C10.7302 8.88806 10.7284 8.88278 10.7284 8.87732V7.93428C10.7284 7.85149 10.6955 7.77208 10.6369 7.71353C10.5784 7.65499 10.499 7.6221 10.4162 7.6221H8.24827C8.16547 7.6221 8.08606 7.65499 8.02752 7.71353C7.96897 7.77208 7.93608 7.85149 7.93608 7.93428V16.6771C7.93608 16.7599 7.96897 16.8393 8.02752 16.8978C8.08606 16.9564 8.16547 16.9893 8.24827 16.9893H10.5325C10.6153 16.9893 10.6947 16.9564 10.7533 16.8978C10.8118 16.8393 10.8447 16.7599 10.8447 16.6771V12.3554C10.8447 11.1334 11.0765 9.95 12.5915 9.95C14.0849 9.95 14.1043 11.3483 14.1043 12.4345V16.6775C14.1043 16.7603 14.1372 16.8397 14.1957 16.8982C14.2543 16.9568 14.3337 16.9897 14.4165 16.9897ZM2.96582 4.65382C2.96582 5.57977 3.7281 6.34166 4.65413 6.34166C5.57992 6.34158 6.34174 5.57922 6.34174 4.65343C6.34158 3.72764 5.57969 2.96582 4.65382 2.96582C3.72771 2.96582 2.96582 3.72787 2.96582 4.65382ZM3.50895 16.9897H5.79627C5.87907 16.9897 5.95847 16.9568 6.01702 16.8982C6.07556 16.8397 6.10846 16.7603 6.10846 16.6775V7.93428C6.10846 7.85149 6.07556 7.77208 6.01702 7.71353C5.95847 7.65499 5.87907 7.6221 5.79627 7.6221H3.50895C3.42615 7.6221 3.34675 7.65499 3.2882 7.71353C3.22965 7.77208 3.19676 7.85149 3.19676 7.93428V16.6775C3.19676 16.7603 3.22965 16.8397 3.2882 16.8982C3.34675 16.9568 3.42615 16.9897 3.50895 16.9897Z" fill="white"/>
</svg>
