<svg width="15" height="19" viewBox="0 0 15 19" fill="none" xmlns="http://www.w3.org/2000/svg">
<path d="M7.5 0C3.35953 0 0 2.73592 0 6.10714C0 11.5357 7.5 19 7.5 19C7.5 19 15 11.5357 15 6.10714C15 2.73592 11.6405 0 7.5 0ZM7.5 9.5C6.90666 9.5 6.32664 9.34081 5.83329 9.04256C5.33994 8.74431 4.95542 8.3204 4.72836 7.82443C4.5013 7.32846 4.44189 6.7827 4.55764 6.25618C4.6734 5.72966 4.95912 5.24602 5.37868 4.86642C5.79824 4.48682 6.33279 4.22831 6.91473 4.12358C7.49667 4.01885 8.09987 4.0726 8.64805 4.27804C9.19623 4.48348 9.66476 4.83138 9.99441 5.27774C10.3241 5.7241 10.5 6.24888 10.5 6.78571C10.4991 7.50535 10.1828 8.19528 9.62036 8.70414C9.05794 9.21299 8.29538 9.49921 7.5 9.5Z" fill="#1CB698"/>
</svg>
