<svg width="17" height="20" viewBox="0 0 17 20" fill="none" xmlns="http://www.w3.org/2000/svg">
<path d="M16.9999 0.750454C16.9998 0.633624 16.9724 0.518428 16.9199 0.414051C16.8674 0.309673 16.7913 0.219 16.6976 0.14926C16.6038 0.0795199 16.4951 0.0326415 16.38 0.012362C16.265 -0.0079176 16.1468 -0.00103734 16.0349 0.032454L6.03486 3.03245C5.88033 3.07869 5.74483 3.17352 5.64845 3.30286C5.55208 3.43219 5.49997 3.58916 5.49986 3.75045V13.6275C4.85115 13.1758 4.06865 12.957 3.27977 13.0068C2.49088 13.0565 1.74206 13.3718 1.15522 13.9014C0.568373 14.4309 0.178064 15.1435 0.0478341 15.9232C-0.082396 16.7029 0.0551216 17.5036 0.437999 18.1952C0.820877 18.8867 1.42657 19.4283 2.15646 19.7317C2.88635 20.0351 3.69747 20.0826 4.45775 19.8663C5.21803 19.65 5.88271 19.1827 6.34357 18.5405C6.80443 17.8983 7.03434 17.119 6.99586 16.3295L6.99986 16.2505V8.30845L15.4999 5.75845V11.6285C14.8511 11.1768 14.0687 10.958 13.2798 11.0078C12.4909 11.0575 11.7421 11.3728 11.1552 11.9024C10.5684 12.4319 10.1781 13.1446 10.0478 13.9242C9.9176 14.7039 10.0551 15.5046 10.438 16.1962C10.8209 16.8877 11.4266 17.4293 12.1565 17.7327C12.8864 18.0361 13.6975 18.0836 14.4577 17.8673C15.218 17.651 15.8827 17.1837 16.3436 16.5415C16.8044 15.8993 17.0343 15.12 16.9959 14.3305L16.9999 14.2505V0.750454Z" fill="white"/>
</svg>
