<svg width="22" height="22" viewBox="0 0 22 22" fill="none" xmlns="http://www.w3.org/2000/svg">
<path d="M21.5014 0.398026C21.9598 0.939693 22.0223 1.71053 21.6889 2.71053C21.3556 3.71053 20.7931 4.60636 20.0014 5.39803L17.4858 7.91365L19.9858 18.7887C20.0379 18.9866 19.9754 19.1584 19.7983 19.3043L17.7983 20.8043C17.7254 20.8668 17.6264 20.898 17.5014 20.898C17.4598 20.898 17.4233 20.8928 17.392 20.8824C17.2358 20.8512 17.1264 20.7678 17.0639 20.6324L12.7045 12.6949L8.65767 16.7418L9.4858 19.773C9.53788 19.9501 9.49621 20.1116 9.3608 20.2574L7.8608 21.7574C7.76705 21.8512 7.64725 21.898 7.50142 21.898H7.47017C7.31392 21.8772 7.18892 21.8095 7.09517 21.6949L4.14205 17.7574L0.204545 14.8043C0.0899621 14.7314 0.0222538 14.6116 0.00142045 14.4449C-0.00899621 14.3095 0.0378788 14.1793 0.142045 14.0543L1.64205 12.5387C1.7358 12.4449 1.85559 12.398 2.00142 12.398C2.06392 12.398 2.10559 12.4032 2.12642 12.4137L5.15767 13.2418L9.20455 9.1949L1.26705 4.83553C1.12121 4.75219 1.03267 4.62719 1.00142 4.46053C0.980587 4.29386 1.02746 4.15323 1.14205 4.03865L3.14205 2.03865C3.28788 1.90323 3.44413 1.86157 3.6108 1.91365L14.0014 4.39803L16.5014 1.89803C17.2931 1.10636 18.1889 0.54386 19.1889 0.210526C20.1889 -0.122807 20.9598 -0.060307 21.5014 0.398026Z" fill="white"/>
</svg>
